<?xml version="1.0" encoding="UTF-8"?>
<svg id="Capa_1" data-name="Capa 1" xmlns="http://www.w3.org/2000/svg" version="1.1" viewBox="0 0 48 48">
  <defs>
    <style>
      .cls-1 {
        fill: #161616;
      }

      .cls-1, .cls-2, .cls-3 {
        stroke-width: 0px;
      }

      .cls-2 {
        fill: #e8e8e8;
      }

      .cls-3 {
        fill: #ff6445;
      }
    </style>
  </defs>
  <circle class="cls-3" cx="24" cy="24" r="24"/>
  <path class="cls-2" d="M24,48c13.25,0,24-10.75,24-24H0c0,13.25,10.75,24,24,24Z"/>
  <path class="cls-1" d="M47.84,26.71c.1-.86.15-1.74.15-2.63v-.16c0-.67-.04-1.33-.09-1.99H.09c-.06.68-.09,1.37-.09,2.07,0,.92.06,1.82.16,2.71h47.69Z"/>
  <path class="cls-1" d="M47.84,26.71c.1-.86.15-1.74.15-2.63v-.08H0c0,.92.06,1.82.16,2.71h47.69Z"/>
  <circle class="cls-1" cx="24" cy="24" r="7.4"/>
  <circle class="cls-2" cx="24" cy="24" r="3.59"/>
</svg>